# xmcd
#
# Track frame offsets:
# 150
# 2534
# 67656
# 82730
# 89136
# 115704
# 153269
# 156212
# 175108
# 181121
# 193265
# 246207
# 289762
#
# Disc length: 4291 seconds
#
#
# Revision: 0
# Processed by: cddbd v1.5.2PL0 Copyright (c) Steve Scherf et al.
# Submitted via: FreeRIP 2.96 
#
DISCID=9910c10d
DTITLE=Sir Arthur Conan Doyle - Sherlock Holmes - Fünf klassische Fälle - CD 3
DYEAR=1962
DGENRE=Speech
TTITLE0=1 Am Morgen des 2. Weihnachtstages ...
TTITLE1=2 Herein, herein, mein lieber Watson ...
TTITLE2=3 Das ist mein Freund und Kollege Dr. Watson ...
TTITLE3=4 Da waeren wir, hier ist das...
TTITLE4=5 Da ist sein ...
TTITLE5=6 Bitte nehmen Sie Platz ..
TTITLE6=1 Als im Fruehjahr 1894 ...
TTITLE7=2 Entschuldigen Sie, Sie sind doch ...
TTITLE8=3 Der hat sich selbst umgebracht ...
TTITLE9=4 Herein, entschuldigen Sie Herr Doktor ...
TTITLE10=5 Holmes, Du bist es wirklich ...
TTITLE11=6 Ziemlich ungemuetlich hier ...
TTITLE12=7 Hier Mr. Holmes, sehen Sie sich das an...
EXTD=Peter Pasetti, U.V.A.
EXTT0=Der blaue Karfunkel
EXTT1=Der blaue Karfunkel
EXTT2=Der blaue Karfunkel
EXTT3=Der blaue Karfunkel
EXTT4=Der blaue Karfunkel
EXTT5=Der blaue Karfunkel
EXTT6=Das leere Haus
EXTT7=Das leere Haus
EXTT8=Das leere Haus
EXTT9=Das leere Haus
EXTT10=Das leere Haus
EXTT11=Das leere Haus
EXTT12=Das leere Haus
PLAYORDER=
